<svg xmlns="http://www.w3.org/2000/svg" viewBox="0 0 512 512">
  <defs>
    <linearGradient id="bg" x1="96" y1="64" x2="416" y2="448" gradientUnits="userSpaceOnUse">
      <stop stop-color="#262626" />
      <stop offset="1" stop-color="#050505" />
    </linearGradient>
    <linearGradient id="accent" x1="128" y1="128" x2="384" y2="384" gradientUnits="userSpaceOnUse">
      <stop stop-color="#f5f5f5" />
      <stop offset="1" stop-color="#a3a3a3" />
    </linearGradient>
  </defs>
  <rect width="512" height="512" rx="112" fill="url(#bg)" />
  <path d="M152 168c0-22 18-40 40-40h128c22 0 40 18 40 40v34h-48v-28H200v164h112v-28h48v34c0 22-18 40-40 40H192c-22 0-40-18-40-40V168Z" fill="url(#accent)" />
  <path d="M288 218h48v-42h40v42h24c18 0 32 14 32 32v12h-64v32h64v12c0 18-14 32-32 32h-24v42h-40v-42h-48V218Z" fill="#fafafa" />
  <path d="M216 216h54v40h-54v-40Zm0 80h54v40h-54v-40Z" fill="#171717" opacity="0.92" />
</svg>
